<svg viewBox="0 0 24 24" xmlns="http://www.w3.org/2000/svg" xmlns:xlink="http://www.w3.org/1999/xlink" width="24.000000" height="24.000000" fill="none">
	<defs>
		<clipPath id="clipPath_3">
			<rect width="24.000000" height="24.000000" x="0.000000" y="0.000000" fill="rgb(255,255,255)" />
		</clipPath>
	</defs>
	<rect id="Icon" width="24.000000" height="24.000000" x="0.000000" y="0.000000" />
	<g id="Grid" clip-path="url(#clipPath_3)" customFrame="url(#clipPath_3)">
		<rect id="Grid" width="24.000000" height="24.000000" x="0.000000" y="0.000000" />
		<rect id="Bg" width="24.000000" height="24.000000" x="0.000000" y="0.000000" opacity="0" fill="rgb(255,255,255)" />
		<g id="Rules" opacity="0">
			<path id="Vector" d="M0 0L0 0" stroke="rgb(255,0,0)" stroke-opacity="0.100000001" stroke-dasharray="1 1 " stroke-width="0.25" />
			<path id="Vector" d="M0 0L0 0" stroke="rgb(255,0,0)" stroke-opacity="0.100000001" stroke-dasharray="1 1 " stroke-width="0.25" />
			<circle id="Ellipse" cx="0" cy="0" r="-0.125" stroke="rgb(255,0,0)" stroke-opacity="0.100000001" stroke-width="0.25" />
			<circle id="Ellipse" cx="0" cy="0" r="-0.125" stroke="rgb(0,85,255)" stroke-opacity="0.100000001" stroke-width="0.25" />
			<rect id="Rectangle" width="-0.250000" height="-0.250000" x="0.125000" y="0.125000" rx="-0.125000" stroke="rgb(255,0,0)" stroke-opacity="0.100000001" stroke-width="0.25" />
			<rect id="Rectangle" width="-0.250000" height="-0.250000" x="0.125000" y="0.125000" rx="-0.125000" stroke="rgb(0,85,255)" stroke-opacity="0.100000001" stroke-width="0.25" />
			<rect id="Rectangle" width="-0.250000" height="-0.250000" x="0.125000" y="0.125000" rx="-0.125000" stroke="rgb(0,85,255)" stroke-opacity="0.100000001" stroke-width="0.25" />
		</g>
		<g id="Space" opacity="0">
			<path id="Subtract" />
		</g>
	</g>
	<path id="Old" d="M16.3519 1.55679C17.087 1.25231 17.913 1.25231 18.6481 1.55679C18.974 1.6918 19.2423 1.89007 19.4914 2.10738C19.728 2.31377 19.9956 2.5814 20.3058 2.89157L21.1084 3.69419C21.4186 4.00435 21.6862 4.27198 21.8926 4.5086C22.1099 4.75774 22.3082 5.02602 22.4432 5.35195C22.7477 6.08704 22.7477 6.91297 22.4432 7.64805C22.3082 7.97398 22.1099 8.24227 21.8926 8.49141C21.6862 8.72803 21.4186 8.99566 21.1084 9.30583L11.7005 18.7137C9.27617 21.138 5.98811 22.5 2.55964 22.5C1.97442 22.5 1.5 22.0256 1.5 21.4404C1.5 18.0119 2.86196 14.7238 5.28626 12.2995L14.6942 2.89162C15.0043 2.58143 15.272 2.31378 15.5086 2.10738C15.7577 1.89007 16.026 1.6918 16.3519 1.55679ZM17.8827 3.40455C17.6377 3.30306 17.3623 3.30306 17.1173 3.40455C17.0757 3.42179 16.9955 3.46437 16.8233 3.61458C16.6443 3.77072 16.4249 3.98928 16.0858 4.32843L15.4142 5L19 8.58579L19.6716 7.91422C20.0107 7.57507 20.2293 7.35574 20.3854 7.17674C20.5356 7.00452 20.5782 6.9243 20.5955 6.88269C20.6969 6.63766 20.6969 6.36235 20.5955 6.11732C20.5782 6.07571 20.5356 5.99549 20.3854 5.82327C20.2293 5.64426 20.0107 5.42494 19.6716 5.08579L18.9142 4.32843C18.5751 3.98928 18.3557 3.77072 18.1767 3.61458C18.0045 3.46437 17.9243 3.42179 17.8827 3.40455ZM17.5858 10L14 6.41422L6.70047 13.7137C4.88467 15.5296 3.77392 17.9186 3.54444 20.4556C6.08138 20.2261 8.47045 19.1153 10.2863 17.2995L17.5858 10Z" opacity="0" fill="rgb(112.608,115.872,122.4)" fill-rule="evenodd" />
	<path id="Vector" d="M3.42097 15.9742C3.44705 15.8177 3.46009 15.7395 3.48454 15.6657C3.51715 15.5674 3.56483 15.4748 3.62588 15.3911C3.67167 15.3283 3.72775 15.2723 3.8399 15.1601L14 5L15.3787 3.62132C16.0376 2.96238 16.3671 2.63291 16.7346 2.48067C17.2247 2.27768 17.7753 2.27768 18.2654 2.48067C18.6329 2.63291 18.9624 2.96238 19.6213 3.62132L20.3787 4.37868C21.0376 5.03762 21.3671 5.36709 21.5193 5.73463C21.7223 6.22469 21.7223 6.77531 21.5193 7.26537C21.3671 7.63291 21.0376 7.96238 20.3787 8.62132L19 10L8.8399 20.1601C8.72775 20.2723 8.67167 20.3283 8.60891 20.3741C8.52524 20.4352 8.43258 20.4829 8.33426 20.5155C8.26053 20.5399 8.1823 20.5529 8.02584 20.579L5.60714 20.9821C4.67775 21.137 4.21305 21.2145 3.86706 21.1036C3.40575 20.9558 3.04422 20.5943 2.89639 20.1329C2.78551 19.7869 2.86296 19.3223 3.01786 18.3929L3.42097 15.9742ZM14 5L19 10" opacity="0" stroke="rgb(0,0,0)" stroke-linecap="round" stroke-linejoin="round" stroke-width="2" />
	<path id="Shape" d="M16.3516 1.55679C17.0867 1.25231 17.9126 1.25231 18.6477 1.55679C18.9736 1.6918 19.2419 1.89007 19.4911 2.10738C19.7277 2.31377 19.9953 2.5814 20.3054 2.89157L21.1081 3.69419C21.4183 4.00435 21.6859 4.27198 21.8923 4.5086C22.1096 4.75774 22.3079 5.02602 22.4429 5.35195C22.7474 6.08704 22.7474 6.91297 22.4429 7.64805C22.3079 7.97398 22.1096 8.24227 21.8923 8.49141C21.6859 8.72803 21.4182 8.99566 21.1081 9.30583L9.54668 20.8672C9.5391 20.8748 9.53133 20.8826 9.52337 20.8906C9.43609 20.9782 9.32627 21.0884 9.198 21.182C9.03064 21.3041 8.84533 21.3994 8.6487 21.4646C8.49797 21.5146 8.34446 21.5399 8.22245 21.56C8.21133 21.5619 8.20048 21.5637 8.18991 21.5654L5.73597 21.9744C5.30141 22.0469 4.92132 22.1102 4.60785 22.1385C4.28315 22.1678 3.9233 22.1718 3.56155 22.0559C2.79269 21.8095 2.19015 21.207 1.94376 20.4381C1.82783 20.0764 1.83187 19.7165 1.86117 19.3918C1.88945 19.0783 1.95282 18.6982 2.02526 18.2637L2.43425 15.8098C2.43601 15.7992 2.4378 15.7883 2.43963 15.7772C2.45975 15.6552 2.48506 15.5017 2.53504 15.351C2.60025 15.1543 2.69561 14.969 2.81772 14.8017C2.91131 14.6734 3.02152 14.5636 3.1091 14.4763C3.11709 14.4683 3.12489 14.4606 3.13247 14.453L14.6938 2.89162C15.004 2.58143 15.2716 2.31378 15.5083 2.10738C15.7574 1.89007 16.0257 1.6918 16.3516 1.55679ZM17.8824 3.40455C17.6373 3.30306 17.362 3.30306 17.117 3.40455C17.0754 3.42179 16.9952 3.46437 16.8229 3.61458C16.6439 3.77072 16.4246 3.98928 16.0855 4.32843L15.4139 5L18.9997 8.58579L19.6712 7.91422C20.0104 7.57507 20.2289 7.35574 20.3851 7.17674C20.5353 7.00452 20.5779 6.9243 20.5951 6.88269C20.6966 6.63766 20.6966 6.36235 20.5951 6.11732C20.5779 6.07571 20.5353 5.99549 20.3851 5.82327C20.229 5.64426 20.0104 5.42494 19.6712 5.08579L18.9139 4.32843C18.5747 3.98928 18.3554 3.77072 18.1764 3.61458C18.0042 3.46437 17.924 3.42179 17.8824 3.40455ZM17.5855 10L13.9997 6.41422L4.54668 15.8672C4.48654 15.9273 4.45693 15.9571 4.43598 15.9794C4.43543 15.98 4.43491 15.9805 4.43441 15.981C4.43427 15.9818 4.43412 15.9825 4.43397 15.9833C4.42802 16.0133 4.42102 16.0547 4.40704 16.1386L4.00392 18.5573C3.9239 19.0374 3.87376 19.3423 3.85308 19.5715C3.83626 19.7579 3.84734 19.8217 3.84898 19.8297C3.89844 19.9819 4.01777 20.1012 4.16997 20.1507C4.17797 20.1523 4.24181 20.1634 4.42814 20.1466C4.65741 20.1259 4.96229 20.0758 5.44241 19.9958L7.86111 19.5926C7.94501 19.5787 7.98639 19.5716 8.01639 19.5657C8.01717 19.5656 8.01792 19.5654 8.01863 19.5653C8.01917 19.5648 8.01972 19.5642 8.0203 19.5637C8.04257 19.5427 8.07232 19.5131 8.13247 19.453L17.5855 10Z" fill="rgb(112.608,115.872,122.4)" fill-rule="evenodd" />
</svg>
