<svg width="24.000000" height="24.000000" viewBox="0 0 24 24" fill="none" xmlns="http://www.w3.org/2000/svg" xmlns:xlink="http://www.w3.org/1999/xlink">
	<desc>
			Created with Pixso.
	</desc>
	<defs>
		<clipPath id="clip43_9996">
			<rect id="Grid" rx="0.000000" width="23.000000" height="23.000000" transform="translate(0.500000 0.500000)" fill="white" fill-opacity="0"/>
		</clipPath>
		<clipPath id="clip13448_351301">
			<rect id="Icon" rx="0.000000" width="23.000000" height="23.000000" transform="translate(0.500000 0.500000)" fill="white" fill-opacity="0"/>
		</clipPath>
	</defs>
	<g clip-path="url(#clip13448_351301)">
		<g clip-path="url(#clip43_9996)"/>
		<path id="Shape" d="M4 8C4 3.58 7.58 0 12 0C16.41 0 20 3.58 20 8L20 10.82L21.37 14.69C21.53 15.11 21.66 15.47 21.74 15.78C21.83 16.1 21.9 16.45 21.84 16.83C21.73 17.64 21.24 18.34 20.52 18.71C20.18 18.89 19.82 18.95 19.49 18.97C19.17 19 18.78 19 18.34 19L16 19C16 21.2 14.2 23 12 23C9.79 23 8 21.2 8 19L5.65 19C5.21 19 4.82 19 4.5 18.97C4.17 18.95 3.81 18.89 3.47 18.71C2.75 18.34 2.26 17.64 2.15 16.83C2.09 16.45 2.16 16.1 2.25 15.78C2.33 15.47 2.46 15.11 2.62 14.69L4 10.82L4 8ZM10 19C10 20.1 10.89 21 12 21C13.1 21 14 20.1 14 19L10 19Z" fill="#248BF2" fill-opacity="1.000000" fill-rule="evenodd"/>
	</g>
</svg>
